<mxfile host="app.diagrams.net" modified="2023-04-24T02:35:22.410Z" agent="Mozilla/5.0 (Macintosh; Intel Mac OS X 10.15; rv:102.0) Gecko/20100101 Firefox/102.0" version="21.1.8" etag="Gs6m4NmVDYwpzGoDct_o" type="github">
  <diagram name="Page-1" id="aihNkRCdt9U99fh4hsEZ">
    <mxGraphModel>
      <root>
        <mxCell id="0" />
        <mxCell id="1" parent="0" />
      </root>
    </mxGraphModel>
  </diagram>
</mxfile>
